<svg width="10" height="18" viewBox="0 0 10 18" fill="none" xmlns="http://www.w3.org/2000/svg">
<path d="M5.01026 17.5392C4.64951 17.5392 4.10838 17.3893 4.06829 16.9796V15.9302L3.75765 15.8602C2.96599 15.6903 2.25451 15.2905 1.62319 14.6809C0.991874 14.0712 0.560975 13.2317 0.330494 12.1823C0.260347 11.8525 0.310452 11.5627 0.490829 11.3428C0.671205 11.113 0.981853 10.9731 1.2925 10.9731C1.64323 10.9731 1.90378 11.143 2.03405 11.4428C2.26453 12.3922 2.65535 13.1218 3.2065 13.5915C3.76767 14.0613 4.43907 14.3011 5.21068 14.3011C5.98229 14.3011 6.65369 14.1312 7.10463 13.8114C7.59565 13.4516 7.84618 12.9019 7.84618 12.1724C7.84618 11.5327 7.57561 10.993 7.03448 10.5933C6.5635 10.2335 5.81193 9.88368 4.72967 9.5139C3.31673 9.02418 2.29459 8.46451 1.70336 7.85486C1.14219 7.2752 0.861602 6.50565 0.861602 5.57619C0.861602 4.82662 1.1021 4.11704 1.58311 3.46741C2.05409 2.82779 2.81568 2.37805 3.82779 2.13819L4.13844 2.06823V0.858931C4.14846 0.479152 4.67957 0.339233 5.0303 0.339233C5.48124 0.339233 5.95223 0.539117 5.99231 0.908902V2.1082L6.34304 2.15818C7.03448 2.24812 7.64576 2.53795 8.15683 3.02767C8.67791 3.51739 9.06873 4.177 9.31925 4.99653C9.40944 5.28636 9.37938 5.53621 9.22906 5.73609C9.03867 5.99594 8.64785 6.17584 8.27708 6.17584C8.11674 6.17584 7.73595 6.13586 7.68584 5.79606C7.48542 5.13644 7.15474 4.63673 6.69377 4.26695C6.22279 3.88717 5.62154 3.69728 4.91005 3.69728C4.28875 3.69728 3.77769 3.8372 3.37685 4.12703C2.94595 4.43685 2.71547 4.88659 2.71547 5.42627C2.71547 6.03592 2.98604 6.53563 3.53719 6.9254C4.00817 7.26521 4.84993 7.63499 6.11256 8.05475C7.56559 8.55446 8.53762 9.1641 8.99858 9.8537C9.46957 10.5533 9.70005 11.3328 9.70005 12.1724C9.70005 13.3717 9.36936 14.2511 8.70798 14.7908C7.99649 15.3605 7.17478 15.7403 6.26287 15.9102L5.93218 15.9701V16.9995C5.91214 17.3793 5.37101 17.5192 5.02028 17.5192L5.01026 17.5392Z" fill="#606882"/>
</svg>
